<svg id="visual" viewBox="0 0 500 200" width="500" height="200" xmlns="http://www.w3.org/2000/svg" xmlns:xlink="http://www.w3.org/1999/xlink" version="1.1"><rect x="0" y="0" width="500" height="200" fill="#dfc9f8"></rect><path d="M0 110L11.8 121.8C23.7 133.7 47.3 157.3 71.2 166C95 174.7 119 168.3 142.8 157.2C166.7 146 190.3 130 214.2 130.2C238 130.3 262 146.7 285.8 144.8C309.7 143 333.3 123 357.2 114.7C381 106.3 405 109.7 428.8 116C452.7 122.3 476.3 131.7 488.2 136.3L500 141L500 201L488.2 201C476.3 201 452.7 201 428.8 201C405 201 381 201 357.2 201C333.3 201 309.7 201 285.8 201C262 201 238 201 214.2 201C190.3 201 166.7 201 142.8 201C119 201 95 201 71.2 201C47.3 201 23.7 201 11.8 201L0 201Z" fill="#dfb1ee"></path></svg>