<svg id="visual" viewBox="0 0 500 200" width="500" height="200" xmlns="http://www.w3.org/2000/svg" xmlns:xlink="http://www.w3.org/1999/xlink" version="1.1"><rect x="0" y="0" width="500" height="200" fill="#dfc9f8"></rect><path d="M0 141L11.8 144.8C23.7 148.7 47.3 156.3 71.2 160.3C95 164.3 119 164.7 142.8 160.5C166.7 156.3 190.3 147.7 214.2 142C238 136.3 262 133.7 285.8 133.5C309.7 133.3 333.3 135.7 357.2 141.2C381 146.7 405 155.3 428.8 159.8C452.7 164.3 476.3 164.7 488.2 164.8L500 165L500 201L488.2 201C476.3 201 452.7 201 428.8 201C405 201 381 201 357.2 201C333.3 201 309.7 201 285.8 201C262 201 238 201 214.2 201C190.3 201 166.7 201 142.8 201C119 201 95 201 71.2 201C47.3 201 23.7 201 11.8 201L0 201Z" fill="#dfb1ee"></path></svg>