<svg id="visual" viewBox="0 0 500 200" width="500" height="200" xmlns="http://www.w3.org/2000/svg" xmlns:xlink="http://www.w3.org/1999/xlink" version="1.1"><rect x="0" y="0" width="500" height="200" fill="#dfc9f8"></rect><path d="M0 184L11.8 179.5C23.7 175 47.3 166 71.2 153.5C95 141 119 125 142.8 120.3C166.7 115.7 190.3 122.3 214.2 130.3C238 138.3 262 147.7 285.8 155.2C309.7 162.7 333.3 168.3 357.2 171.2C381 174 405 174 428.8 168.5C452.7 163 476.3 152 488.2 146.5L500 141L500 201L488.2 201C476.3 201 452.7 201 428.8 201C405 201 381 201 357.2 201C333.3 201 309.7 201 285.8 201C262 201 238 201 214.2 201C190.3 201 166.7 201 142.8 201C119 201 95 201 71.2 201C47.3 201 23.7 201 11.8 201L0 201Z" fill="#dfb1ee"></path></svg>